<?xml version="1.0" encoding="iso-8859-1"?>
<!-- Generator: Adobe Illustrator 18.1.1, SVG Export Plug-In . SVG Version: 6.00 Build 0)  -->
<svg xmlns="http://www.w3.org/2000/svg" xmlns:xlink="http://www.w3.org/1999/xlink" version="1.1" id="Capa_1" x="0px" y="0px" viewBox="0 0 174.239 174.239" style="enable-background:new 0 0 174.239 174.239;" xml:space="preserve" width="512px" height="512px">
<g>
	<g>
		<path d="M87.12,174.239C39.082,174.239,0,135.157,0,87.12S39.082,0,87.12,0s87.12,39.082,87.12,87.12    S135.157,174.239,87.12,174.239z M87.12,14.935c-39.802,0-72.185,32.383-72.185,72.185s32.383,72.185,72.185,72.185    s72.185-32.383,72.185-72.185S126.921,14.935,87.12,14.935z" fill="#c07383"/>
	</g>
	<g>
		<path d="M125.32,94.587h-38.2c-4.125,0-7.467-3.345-7.467-7.467V40.794c0-4.123,3.342-7.467,7.467-7.467s7.467,3.345,7.467,7.467    v38.859h30.733c4.125,0,7.467,3.345,7.467,7.467S129.445,94.587,125.32,94.587z" fill="#c07383"/>
	</g>
</g>
<g>
</g>
<g>
</g>
<g>
</g>
<g>
</g>
<g>
</g>
<g>
</g>
<g>
</g>
<g>
</g>
<g>
</g>
<g>
</g>
<g>
</g>
<g>
</g>
<g>
</g>
<g>
</g>
<g>
</g>
</svg>
