<?xml version="1.0" encoding="iso-8859-1"?>
<!-- Generator: Adobe Illustrator 16.0.0, SVG Export Plug-In . SVG Version: 6.00 Build 0)  -->
<!DOCTYPE svg PUBLIC "-//W3C//DTD SVG 1.1//EN" "http://www.w3.org/Graphics/SVG/1.1/DTD/svg11.dtd">
<svg xmlns="http://www.w3.org/2000/svg" xmlns:xlink="http://www.w3.org/1999/xlink" version="1.1" id="Capa_1" x="0px" y="0px" width="512px" height="512px" viewBox="0 0 366.446 366.446" style="enable-background:new 0 0 366.446 366.446;" xml:space="preserve">
<g>
	<g>
		<path d="M0,295.517c0-18.726,2.2-36.515,6.111-52.52h27.882v109.102H7.229C2.493,334.593,0,315.129,0,295.517z" fill="#a93f55"/>
		<rect x="44.738" y="242.989" width="45.465" height="109.094" fill="#a93f55"/>
		<path d="M127.729,352.094h-26.769V242.989h27.887c3.914,16.013,6.113,33.786,6.113,52.518    C134.949,315.129,132.456,334.593,127.729,352.094z" fill="#a93f55"/>
		<path d="M67.476,168.955c24.921,0,46.714,25.489,58.399,63.285H95.579H39.363H9.074C20.759,194.444,42.552,168.955,67.476,168.955    z" fill="#a93f55"/>
		<path d="M331.554,144.675c-13.067,13.055-27.224,24.113-41.529,32.761l-19.659-19.656l77.157-77.148l18.924,18.927    C357.411,115.28,345.406,130.805,331.554,144.675z" fill="#a93f55"/>
		<polygon points="230.617,118.028 307.758,40.88 339.9,73.031 262.77,150.173 246.691,134.099   " fill="#a93f55"/>
		<path d="M236.125,49.246c13.857-13.87,29.39-25.872,45.106-34.899l18.936,18.927l-77.161,77.153l-19.644-19.648    C212.044,76.411,223.073,62.295,236.125,49.246z" fill="#a93f55"/>
		<path d="M226.984,198.182c-13.679,0-24.976-4.053-32.641-11.728c-12.312-12.322-15.058-33.077-7.727-58.46    c2.609-9.062,6.467-18.292,11.275-27.491l21.334,21.321l0.005,0.005l19.869,19.872l41.219,41.224    C261.694,192.702,243.194,198.182,226.984,198.182L226.984,198.182z" fill="#a93f55"/>
		<path d="M247.887,246.34c0-13.723-11.154-24.882-24.881-24.882c-13.723,0-24.882,11.159-24.882,24.882    c0,13.722,11.159,24.872,24.882,24.872C236.732,271.212,247.887,260.051,247.887,246.34z M208.875,246.34    c0-7.791,6.345-14.131,14.131-14.131c7.79,0,14.132,6.34,14.132,14.131c0,7.779-6.342,14.121-14.132,14.121    C215.22,260.461,208.875,254.119,208.875,246.34z" fill="#a93f55"/>
		<path d="M172.986,317.038c0,13.728,11.158,24.883,24.886,24.883c13.723,0,24.882-11.155,24.882-24.883    c0-13.712-11.159-24.871-24.882-24.871C184.144,292.167,172.986,303.326,172.986,317.038z M211.992,317.038    c0,7.791-6.353,14.132-14.131,14.132c-7.793,0-14.124-6.341-14.124-14.132c0-7.773,6.331-14.12,14.124-14.12    C205.64,302.918,211.992,309.26,211.992,317.038z" fill="#a93f55"/>
		<path d="M262.02,349.229c13.717,0,24.878-11.161,24.878-24.883c0-13.712-11.161-24.871-24.878-24.871    c-13.723,0-24.882,11.159-24.882,24.871S248.297,349.229,262.02,349.229z M262.02,310.216c7.779,0,14.126,6.339,14.126,14.13    c0,7.79-6.347,14.122-14.126,14.122c-7.791,0-14.133-6.332-14.133-14.122C247.887,316.555,254.229,310.216,262.02,310.216z" fill="#a93f55"/>
	</g>
</g>
<g>
</g>
<g>
</g>
<g>
</g>
<g>
</g>
<g>
</g>
<g>
</g>
<g>
</g>
<g>
</g>
<g>
</g>
<g>
</g>
<g>
</g>
<g>
</g>
<g>
</g>
<g>
</g>
<g>
</g>
</svg>
